<?xml version="1.0" encoding="UTF-8"?>
<svg width="32px" height="32px" viewBox="0 0 32 32" version="1.1" xmlns="http://www.w3.org/2000/svg">
  <g stroke="none" stroke-width="1" fill="none" fill-rule="evenodd">
    <rect fill="#4285F4" x="4" y="6" width="18" height="18" rx="2"></rect>
    <rect fill="#FFFFFF" x="6" y="10" width="3" height="3" rx="0.4"></rect>
    <rect fill="#FFFFFF" x="11" y="10" width="3" height="3" rx="0.4"></rect>
    <rect fill="#FFFFFF" x="16" y="10" width="3" height="3" rx="0.4"></rect>
    <rect fill="#FFFFFF" x="6" y="15" width="3" height="3" rx="0.4"></rect>
    <rect fill="#FFFFFF" x="11" y="15" width="3" height="3" rx="0.4"></rect>
    <rect fill="#FFFFFF" x="16" y="15" width="3" height="3" rx="0.4"></rect>
    <path d="M26,11 C27.6568542,11 29,12.3431458 29,14 L29,20 C29,21.6568542 27.6568542,23 26,23 L23,23 L23,26 L20,23 L16,23 L16,20 L26,20 L26,14 L16,14 L16,11 L26,11 Z" fill="#34A853" fill-rule="nonzero"></path>
  </g>
</svg> 